<svg xmlns="http://www.w3.org/2000/svg" viewBox="0 0 224.07 50.57"><defs><style>.cls-1,.cls-2{fill:none;}.cls-1{stroke:#231f20;stroke-width:0.1px;}.cls-2{stroke:#be1e2d;stroke-width:4px;opacity:0.25;}</style></defs><g id="Layer_2" data-name="Layer 2"><g id="TEXT"><path class="cls-1" d=
"M97.56,37.61a1.15,1.15,0,0,0-.78-.34,1.27,1.27,0,0,0-.64.18.92.92,0,0,0-.42.37,13.25,13.25,0,0,1-1.08,1.86A5.34,5.34,0,0,1,93.37,41a5.11,5.11,0,0,1-1.57.77,6.94,6.94,0,0,1-2,.26h-.42A2.56,2.56,0,0,1,89,42a9.22,9.22,0,0,0,.26-2.16,14.36,14.36,0,0,0-.35-3.37,7.51,7.51,0,0,0-1-2.31,4,4,0,0,0-1.36-1.32A3.42,3.42,0,0,0,85,32.42a2.79,2.79,0,0,0-2.33,1.16,4.79,4.79,0,0,0-.89,3A7.27,7.27,0,0,0,83,40.68a8.54,8.54,0,0,0,3.12,2.83,5.59,5.59,0,0,1-1.85,2.16,5.1,5.1,0,0,1-3,.86,4.69,4.69,0,0,1-1.87-.37,4.47,4.47,0,0,1-1.44-1A4.38,4.38,0,0,1,77,43.55a5.73,5.73,0,0,1-.32-2A6.61,6.61,0,0,1,77,39.43a5.91,5.91,0,0,1,.82-1.67,5.61,5.61,0,0,1,1.07-1.18A6.36,6.36,0,0,1,80,35.86a4.75,4.75,0,0,0,.86-.53,1,1,0,0,0,.33-.82,1,1,0,0,0-1.09-1.06,3.63,3.63,0,0,0-1.44.5,7.13,7.13,0,0,0-1.93,1.51,9.2,9.2,0,0,0-1.42,2,1.28,1.28,0,0,0-.45.5c-.27.58-.67,1.34-1.17,2.29a23.41,23.41,0,0,1-1.75,2.82,13.23,13.23,0,0,1-2.18,2.39,3.83,3.83,0,0,1-2.48,1c-1.26,0-2.34-.77-3.24-2.33a21.22,21.22,0,0,1-2.16-6.41c1.2-2.18,2.33-4.43,3.38-6.73A69.88,69.88,0,0,0,68,24.07a56.22,56.22,0,0,0,1.83-6.89,34.3,34.3,0,0,0,.67-6.64,25,25,0,0,0-.32-4.4,10.19,10.19,0,0,0-.9-2.92,3.86,3.86,0,0,0-1.43-1.63A3.7,3.7,0,0,0,65.9,1.1a3.27,3.27,0,0,0-2.41,1.09,10.2,10.2,0,0,0-1.88,2.95A27,27,0,0,0,60.2,9.48c-.4,1.65-.72,3.4-1,5.24s-.44,3.73-.56,5.65-.18,3.79-.18,5.59c0,1.25,0,2.67.11,4.28s.22,3.26.44,5c.09.73.21,1.45.33,2.17l-.17.08a1.09,1.09,0,0,0-.45.5c-.28.58-.67,1.34-1.18,2.29a22.21,22.21,0,0,1-1.75,2.82,13.23,13.23,0,0,1-2.18,2.39,3.8,3.8,0,0,1-2.47,1c-1.27,0-2.35-.77-3.25-2.33a21,21,0,0,1-2.15-6.41c1.2-2.18,2.32-4.43,3.37-6.73a69.88,69.88,0,0,0,2.73-6.92,56.22,56.22,0,0,0,1.83-6.89,34.33,34.33,0,0,0,.68-6.64,26,26,0,0,0-.32-4.4,10.86,10.86,0,0,0-.9-2.92,3.92,3.92,0,0,0-1.43-1.63,3.75,3.75,0,0,0-1.91-.49A3.26,3.26,0,0,0,47.4,2.19a9.8,9.8,0,0,0-1.88,2.95A26,26,0,0,0,44.1,9.48q-.59,2.48-1,5.24c-.25,1.84-.44,3.73-.56,5.65s-.18,3.79-.18,5.59c0,1.25,0,2.67.12,4.28s.22,3.26.43,5c.09.73.21,1.45.33,2.17l-.17.08a1.19,1.19,0,0,0-.45.53c-.45,1-1,2-1.51,3a16.09,16.09,0,0,1-1.89,2.73,9.71,9.71,0,0,1-2.35,2,6,6,0,0,1-5.46.19,5,5,0,0,1-1.74-1.49A13.74,13.74,0,0,0,32,43a10.9,10.9,0,0,0,1.88-1.83A8.58,8.58,0,0,0,35.16,39a6.82,6.82,0,0,0,.45-2.48,4.46,4.46,0,0,0-.36-1.83A4.24,4.24,0,0,0,33,32.44a3.62,3.62,0,0,0-1.46-.31,4.73,4.73,0,0,0-2.3.58,5.51,5.51,0,0,0-1.8,1.61,7.71,7.71,0,0,0-1.16,2.41c-.08.28-.12.58-.18.87a1.24,1.24,0,0,0-.28.41c-.17.37-.4.82-.68,1.37s-.6,1.11-1,1.7A20.8,20.8,0,0,1,23,42.85a13.83,13.83,0,0,1-1.42,1.6,6.86,6.86,0,0,1-1.51,1.16,3.07,3.07,0,0,1-1.54.43,1.57,1.57,0,0,1-1.09-.37,2.18,2.18,0,0,1-.63-1,6.41,6.41,0,0,1-.29-1.35c-.05-.5-.08-1-.08-1.52a21.49,21.49,0,0,1,.15-2.59,16.91,16.91,0,0,0,.14-2,6.37,6.37,0,0,0-.21-1.67,4.16,4.16,0,0,0-.61-1.35,2.88,2.88,0,0,0-1-.91A3,3,0,0,0,13.4,33a3.89,3.89,0,0,0-1.78.5,6.34,6.34,0,0,0-1.88,1.62c-.62.77-1.22,1.6-1.8,2.47S6.82,39.36,6.3,40.24s-1,1.76-1.44,2.61S4,44.48,3.67,45.21l0-1.51V38.08Q5.33,35,6.88,31.67a62,62,0,0,0,2.7-6.77,54.54,54.54,0,0,0,1.85-7.11,39.91,39.91,0,0,0,.69-7.44,23.71,23.71,0,0,0-.26-3.55,11.36,11.36,0,0,0-.83-3,5.37,5.37,0,0,0-1.51-2A3.51,3.51,0,0,0,7.24,1.1,3.11,3.11,0,0,0,4.62,2.57,12.62,12.62,0,0,0,2.9,6.77a42.65,42.65,0,0,0-1,6.55q-.34,3.84-.49,8.58c-.09,3.16-.15,6.58-.16,10.25s0,7.53,0,11.58v2a3.32,3.32,0,0,0,.53,1.91,1.72,1.72,0,0,0,1.52.78A2.27,2.27,0,0,0,4.52,48a4.73,4.73,0,0,0,1.37-1.82c.23-.47.53-1.06.9-1.78S7.56,42.92,8,42.12s.91-1.59,1.39-2.39,1-1.53,1.45-2.17A11.17,11.17,0,0,1,12.23,36a1.9,1.9,0,0,1,1.17-.59.79.79,0,0,1,.63.35,2.39,2.39,0,0,1,.27,1.35c0,.26,0,.58,0,1s-.07.78-.12,1.21-.08.86-.11,1.3,0,.85,0,1.23a15.61,15.61,0,0,0,.18,2.32,6.94,6.94,0,0,0,.67,2.15,4.46,4.46,0,0,0,1.4,1.59,4.06,4.06,0,0,0,2.38.63,5.12,5.12,0,0,0,2.46-.63,9.52,9.52,0,0,0,2.18-1.61,15.7,15.7,0,0,0,1.85-2.13c.42-.59.79-1.15,1.13-1.69l.15.59A9,9,0,0,0,27.86,46a7.5,7.5,0,0,0,6.2,2.94A8.69,8.69,0,0,0,40,46.37a21.19,21.19,0,0,0,4-5.64A20,20,0,0,0,45.4,44.6a10,10,0,0,0,2.35,3.11,4.86,4.86,0,0,0,3.31,1.19,5.33,5.33,0,0,0,2.36-.53A9,9,0,0,0,55.51,47a13.32,13.32,0,0,0,1.81-1.93,24.16,24.16,0,0,0,1.51-2.16c.45-.73.86-1.43,1.21-2.11l0-.07A20.74,20.74,0,0,0,61.5,44.6a9.84,9.84,0,0,0,2.35,3.11,4.86,4.86,0,0,0,3.31,1.19,5.33,5.33,0,0,0,2.36-.53A9.22,9.22,0,0,0,71.61,47a13.9,13.9,0,0,0,1.81-1.93c.38-.49.73-1,1.07-1.49a6.11,6.11,0,0,0,.28,1,6.4,6.4,0,0,0,1.45,2.28,6.73,6.73,0,0,0,2.18,1.48,7.11,7.11,0,0,0,2.76.53,7.56,7.56,0,0,0,2.38-.36,7.36,7.36,0,0,0,3.53-2.39,9.55,9.55,0,0,0,1.16-1.78,7.39,7.39,0,0,0,1.42.13A8.39,8.39,0,0,0,94.58,43a8.09,8.09,0,0,0,1.7-1.54,14.13,14.13,0,0,0,1.27-1.85l.26-.56a1.58,1.58,0,0,0,.12-.57A1.13,1.13,0,0,0,97.56,37.61ZM3.67,29.72c0-1.39,0-2.88,0-4.48s.06-3.24.11-4.93S4,17,4.05,15.36s.25-3.13.42-4.56A33,33,0,0,1,5.12,7,10.69,10.69,0,0,1,6,4.45c.35-.63.75-.94,1.23-.94a1.54,1.54,0,0,1,1.39.86,6.68,6.68,0,0,1,.74,2,14,14,0,0,1,.29,2.28c0,.75.05,1.29.05,1.64a38.8,38.8,0,0,1-.45,6A47.32,47.32,0,0,1,8,22a57.83,57.83,0,0,1-1.89,5.61Q5,30.4,3.67,33.35ZM28.46,41.1a6.71,6.71,0,0,1-.12-1.22A10,10,0,0,1,28.52,38a6.68,6.68,0,0,1,.56-1.72,3.7,3.7,0,0,1,1-1.26,2.33,2.33,0,0,1,1.48-.48,1.51,1.51,0,0,1,1.12.5,2,2,0,0,1,.48,1.46,4.72,4.72,0,0,1-.32,1.72,6.17,6.17,0,0,1-.9,1.62,7.23,7.23,0,0,1-1.4,1.42,7.75,7.75,0,0,1-1.81,1.06A11.44,11.44,0,0,1,28.46,41.1Zm16.72-7.39c-.11-1.16-.19-2.37-.26-3.63s-.09-2.58-.09-4c0-1.79.05-3.6.17-5.43s.28-3.56.48-5.23.46-3.24.76-4.69a30.52,30.52,0,0,1,1-3.79,10.49,10.49,0,0,1,1.17-2.54c.42-.62.85-.93,1.3-.93.68,0,1.23.54,1.64,1.63A17.38,17.38,0,0,1,52,10.57a30.91,30.91,0,0,1-.56,5.67,55,55,0,0,1-1.5,6q-.93,3-2.15,5.94T45.18,33.71Zm16.1,0c-.11-1.16-.2-2.37-.26-3.63s-.1-2.58-.1-4q0-2.69.18-5.43c.12-1.82.28-3.56.48-5.23s.46-3.24.76-4.69a32.53,32.53,0,0,1,1-3.79A11.31,11.31,0,0,1,64.5,4.44a1.71,1.71,0,0,1,1.31-.93c.68,0,1.23.54,1.63,1.63a17.08,17.08,0,0,1,.61,5.43,30.06,30.06,0,0,1-.56,5.67,52.76,52.76,0,0,1-1.49,6q-.93,3-2.15,5.94C63,30.12,62.18,32,61.28,33.71Zm25.54,7.48a4.74,4.74,0,0,1-1.17-1,6.22,6.22,0,0,1-.84-1.25,5.9,5.9,0,0,1-.5-1.34,5.34,5.34,0,0,1-.16-1.28,1.74,1.74,0,0,1,.32-1.25.89.89,0,0,1,.52-.29,1,1,0,0,1,.83.46,4,4,0,0,1,.6,1.22,11,11,0,0,1,.37,1.66,13.38,13.38,0,0,1,.12,1.77A10,10,0,0,1,86.82,41.19Z"/>
<path class="cls-1" d="M222.46,38.31a1.19,1.19,0,0,0-2,.38c-.3.69-.69,1.49-1.16,2.41a19,19,0,0,1-1.62,2.62,11.33,11.33,0,0,1-2,2.09,3.51,3.51,0,0,1-2.21.85c-2,0-3.52-2.48-4.57-7.42q.87-2.1,1.93-5t2-6.3q.94-3.41,1.59-7.13a43.7,43.7,0,0,0,.64-7.46,20.9,20.9,0,0,0-.22-3.18,9.56,9.56,0,0,0-.69-2.47A4.22,4.22,0,0,0,213,6.11a2.85,2.85,0,0,0-1.8-.58,3.15,3.15,0,0,0-2.12.82,7,7,0,0,0-1.62,2.24,17.26,17.26,0,0,0-1.17,3.27,35.24,35.24,0,0,0-.77,3.94c-.2,1.38-.34,2.79-.42,4.24S205,22.87,205,24.2a68.89,68.89,0,0,0,.45,8.26q.45,3.69,1,6.52a41.1,41.1,0,0,1-1.76,3.89,14.33,14.33,0,0,1-1.44,2.28A3.84,3.84,0,0,1,202,46.22a2.45,2.45,0,0,1-1.09.28,2.21,2.21,0,0,1-1.91-.9,4.18,4.18,0,0,1-.66-2.51,8.79,8.79,0,0,1,.59-3.37,7.28,7.28,0,0,1,1.51-2.33,6.58,6.58,0,0,1,2-1.4,7.8,7.8,0,0,1,2.06-.61,1.12,1.12,0,0,0,.77-.42,1.23,1.23,0,0,0,.29-.8,1.11,1.11,0,0,0-.36-.85,1.13,1.13,0,0,0-.83-.34,6.65,6.65,0,0,0-3,.74,9.19,9.19,0,0,0-2.72,2.07A10.89,10.89,0,0,0,197.11,38a1.63,1.63,0,0,0-.19.09,1.07,1.07,0,0,0-.45.49c-.28.58-.67,1.35-1.18,2.3a22.83,22.83,0,0,1-1.75,2.81,13.65,13.65,0,0,1-2.18,2.4,3.8,3.8,0,0,1-2.47,1c-1.27,0-2.35-.78-3.25-2.33a21,21,0,0,1-2.15-6.41q1.8-3.28,3.37-6.73a69.09,69.09,0,0,0,2.73-6.93,56.22,56.22,0,0,0,1.83-6.89,34.23,34.23,0,0,0,.68-6.63,25.94,25.94,0,0,0-.32-4.4,10.94,10.94,0,0,0-.9-2.93,3.83,3.83,0,0,0-1.43-1.62,3.75,3.75,0,0,0-1.91-.5,3.27,3.27,0,0,0-2.41,1.1,9.67,9.67,0,0,0-1.88,3,25.71,25.71,0,0,0-1.42,4.34c-.39,1.65-.72,3.39-1,5.24s-.44,3.72-.56,5.65-.18,3.79-.18,5.59c0,1.24,0,2.67.12,4.27s.22,3.26.43,5c.09.74.21,1.47.34,2.2l-.15.06a1.21,1.21,0,0,0-.45.45c-.36.71-.82,1.53-1.36,2.48a21.28,21.28,0,0,1-1.85,2.68,12.11,12.11,0,0,1-2.25,2.17,4.3,4.3,0,0,1-2.6.9,3.26,3.26,0,0,1-1-.18,2.9,2.9,0,0,1-1-.63,3.6,3.6,0,0,1-.8-1.2,5,5,0,0,1-.32-1.91,13.12,13.12,0,0,1,.1-1.64c.06-.56.14-1.12.22-1.69s.16-1.12.23-1.65a13.92,13.92,0,0,0,.09-1.54,3.26,3.26,0,0,0-1-2.64,4.31,4.31,0,0,0-2.8-.8h-1l-1.07,0a11.22,11.22,0,0,0-.12-1.51,8.18,8.18,0,0,0-.37-1.66,4,4,0,0,0-.72-1.33,1.51,1.51,0,0,0-1.2-.54,1.83,1.83,0,0,0-1.29.65,7.91,7.91,0,0,0-1.16,1.56,10.59,10.59,0,0,0-.82,1.83,5.18,5.18,0,0,0-.3,1.48,1.71,1.71,0,0,0,1.14,1.77,3.4,3.4,0,0,0,1.08.22c.38,0,.76,0,1.12,0-.19.94-.35,1.63-.48,2.08a8.18,8.18,0,0,1-.27.83s-.07.07-.08.11a15.78,15.78,0,0,1-1.08,1.86,5.93,5.93,0,0,1-1.27,1.32,5.22,5.22,0,0,1-1.57.77,7,7,0,0,1-2,.25h-.42l-.39,0a9.7,9.7,0,0,0,.26-2.15,14.3,14.3,0,0,0-.35-3.37,7.47,7.47,0,0,0-1-2.32,3.77,3.77,0,0,0-1.37-1.31,3.36,3.36,0,0,0-1.64-.42,2.76,2.76,0,0,0-2.32,1.15,4.81,4.81,0,0,0-.89,3,7.33,7.33,0,0,0,1.22,4.12,8.43,8.43,0,0,0,3.12,2.82,5.62,5.62,0,0,1-1.85,2.17,5.09,5.09,0,0,1-3,.85,4.52,4.52,0,0,1-1.87-.37,4.23,4.23,0,0,1-1.44-1,4.41,4.41,0,0,1-.94-1.57,6,6,0,0,1-.32-2,6.89,6.89,0,0,1,.32-2.15,6.66,6.66,0,0,1,.82-1.67,5.84,5.84,0,0,1,1.08-1.17,6.36,6.36,0,0,1,1.09-.72,4.84,4.84,0,0,0,.85-.53,1,1,0,0,0,.34-.82,1.08,1.08,0,0,0-.27-.77,1.05,1.05,0,0,0-.82-.29,3.66,3.66,0,0,0-1.45.49,7.69,7.69,0,0,0-1.92,1.51,9.3,9.3,0,0,0-1.44,2,1.41,1.41,0,0,0-.46.56l-.18.35a2.45,2.45,0,0,1-.43.61,2.59,2.59,0,0,1-.72.57,2.14,2.14,0,0,1-1.05.24,3.62,3.62,0,0,1-1.94-.53,6.19,6.19,0,0,1-1.51-1.34,8.6,8.6,0,0,1-1.13-1.75,14.45,14.45,0,0,1-.75-1.8c-.19-.56-.34-1-.45-1.46s-.17-.65-.19-.74a1.31,1.31,0,0,0-.42-.72,1.23,1.23,0,0,0-2,1,13.49,13.49,0,0,0,.22,1.8,20.93,20.93,0,0,1,.23,3.37,23.69,23.69,0,0,1-.21,3.23,10.8,10.8,0,0,1-.69,2.68A4.65,4.65,0,0,1,127.1,46a2.94,2.94,0,0,1-2,.68,3.28,3.28,0,0,1-1.57-.37,3.07,3.07,0,0,1-1.19-1.16,5.64,5.64,0,0,1-.69-2,12.76,12.76,0,0,1-.11-2.92l.35-5.3a1.47,1.47,0,0,0-.32-.92,1.09,1.09,0,0,0-.87-.4,1.28,1.28,0,0,0-.85.32,1.13,1.13,0,0,0-.4.81l-.42,5.52a9,9,0,0,1-.64,2.8,7.29,7.29,0,0,1-1.22,2,4.93,4.93,0,0,1-1.51,1.14,3.7,3.7,0,0,1-1.48.37,2.58,2.58,0,0,1-2.15-1,4.56,4.56,0,0,1-.78-2.88,14.76,14.76,0,0,1,.31-3.18,13.6,13.6,0,0,1,.69-2.28,8.69,8.69,0,0,1,.76-1.48l.49-.74a1.39,1.39,0,0,0,.26-.77,1.21,1.21,0,0,0-.34-.85,1.09,1.09,0,0,0-.85-.37,1.24,1.24,0,0,0-.5.1,1,1,0,0,0-.4.29,11.72,11.72,0,0,0-1.43,2.25,16,16,0,0,0-1,2.87,17.5,17.5,0,0,0-.43,4.16,8.08,8.08,0,0,0,.38,2.6,6,6,0,0,0,1.08,2A4.64,4.64,0,0,0,112,48.49a5.18,5.18,0,0,0,2.2.45,5.46,5.46,0,0,0,3-1,9,9,0,0,0,2.66-2.88,8.85,8.85,0,0,0,.7,1.53,5.17,5.17,0,0,0,1,1.28,4.65,4.65,0,0,0,1.47.9,5.27,5.27,0,0,0,2,.34,5.12,5.12,0,0,0,3-.85,6.66,6.66,0,0,0,2-2.2,10.54,10.54,0,0,0,1.1-3,21.5,21.5,0,0,0,.45-3.36,13.75,13.75,0,0,0,1.06,1.23,8.35,8.35,0,0,0,1.27,1,7,7,0,0,0,1.5.73,5.36,5.36,0,0,0,1.73.27,4.39,4.39,0,0,0,1.85-.4,7.86,7.86,0,0,0,.5,2.66,6.43,6.43,0,0,0,3.63,3.76,6.86,6.86,0,0,0,2.76.53,7.57,7.57,0,0,0,2.38-.35,7.68,7.68,0,0,0,2-1,7.87,7.87,0,0,0,1.56-1.43A9.31,9.31,0,0,0,153,44.92a6.64,6.64,0,0,0,1.41.13,8.37,8.37,0,0,0,2.73-.35,8.67,8.67,0,0,0,2.21-1.05,7.58,7.58,0,0,0,1.7-1.54,13.49,13.49,0,0,0,1.27-1.85c.08-.17.17-.35.25-.56a.14.14,0,0,0,0-.06s0,0,0,0a2.8,2.8,0,0,0,.16-.38c.08-.24.18-.54.3-.92s.24-.81.37-1.32a14.08,14.08,0,0,0,.32-1.62l1.14,0h1a1.7,1.7,0,0,1,1.21.3,1.37,1.37,0,0,1,.27.92,15.72,15.72,0,0,1-.32,3,16.36,16.36,0,0,0-.32,3.19,7.76,7.76,0,0,0,.45,2.72,6.09,6.09,0,0,0,1.2,2,5.11,5.11,0,0,0,1.79,1.26,5.69,5.69,0,0,0,2.18.43,6.18,6.18,0,0,0,3.42-1,12.74,12.74,0,0,0,2.81-2.44,21.44,21.44,0,0,0,2.24-3.1l.84-1.44a20.06,20.06,0,0,0,1.45,4,9.92,9.92,0,0,0,2.35,3.12,4.91,4.91,0,0,0,3.31,1.19,5.47,5.47,0,0,0,2.36-.53,9,9,0,0,0,2.09-1.38,13.32,13.32,0,0,0,1.81-1.93c.33-.42.64-.85.93-1.28a6.26,6.26,0,0,0,.33,1.34,5.31,5.31,0,0,0,1.09,1.82,3.83,3.83,0,0,0,1.57,1,5.6,5.6,0,0,0,1.87.31,4.91,4.91,0,0,0,3.4-1.48,15.86,15.86,0,0,0,3.12-4.76A12.11,12.11,0,0,0,210,47.61a5.13,5.13,0,0,0,3.69,1.49,4.61,4.61,0,0,0,2.2-.56,9.55,9.55,0,0,0,2-1.43,12.4,12.4,0,0,0,1.7-2c.51-.73,1-1.44,1.4-2.14a21.67,21.67,0,0,0,1.06-2c.29-.61.51-1.1.66-1.46a1.06,1.06,0,0,0,.09-.45A1.17,1.17,0,0,0,222.46,38.31Zm-70.84,3.53a5.21,5.21,0,0,1-1.18-1,6.68,6.68,0,0,1-.83-1.26,5.66,5.66,0,0,1-.5-1.33A5.4,5.4,0,0,1,149,37a1.77,1.77,0,0,1,.32-1.26.93.93,0,0,1,.51-.29,1,1,0,0,1,.84.47,4,4,0,0,1,.59,1.22,8.88,8.88,0,0,1,.37,1.65,11.91,11.91,0,0,1,.13,1.77A10,10,0,0,1,151.62,41.84ZM160.23,33a6.58,6.58,0,0,1,.19-.64,6,6,0,0,1,.29-.72c.11-.23.21-.42.3-.58s.18-.24.24-.24.13.08.18.26a3.78,3.78,0,0,1,.13.61q0,.35.06.72c0,.25,0,.44,0,.59Zm22.68,1.35c-.11-1.15-.19-2.36-.26-3.63s-.09-2.58-.09-3.95c0-1.8.05-3.61.17-5.43s.28-3.57.48-5.24.46-3.23.76-4.69a31,31,0,0,1,1-3.79,10.86,10.86,0,0,1,1.17-2.54c.42-.62.85-.93,1.3-.93.68,0,1.23.55,1.64,1.64a17.29,17.29,0,0,1,.61,5.43,30.91,30.91,0,0,1-.56,5.67,56.23,56.23,0,0,1-1.5,6q-.93,3-2.15,5.94T182.91,34.35Zm24.67-4.56c-.15-1.88-.22-3.77-.22-5.65a57.25,57.25,0,0,1,.3-5.87,47.93,47.93,0,0,1,.82-5.2,17.53,17.53,0,0,1,1.21-3.71c.46-.95,1-1.42,1.49-1.42a.87.87,0,0,1,.77.55,5.09,5.09,0,0,1,.47,1.37,10.46,10.46,0,0,1,.22,1.75c0,.62.05,1.2.05,1.73a41.35,41.35,0,0,1-.37,5.54c-.24,1.86-.58,3.69-1,5.51s-.91,3.61-1.46,5.35-1.15,3.45-1.77,5.1C207.91,33.36,207.73,31.68,207.58,29.79Z"/>


</g><g id="PATHS"><path class="cls-2" d="M2.46,36.94S8.6,28.71,9.71,20.47s2-10.67,1.11-13.11S8.89,1.57,7.35,2.08,3.49,5.94,2.46,14.82s-.13,32.54.65,32S11.85,32.92,13.4,33.71s2.44,1.68,2,5.41-.58,6.09,1.29,7.73,8.1-2.07,10-7.6,3.73-6.14,5.15-5.9,4.8,3.93,1.24,7.17-5,2.85-5,2.85.94,3,3.25,3.87,6.18.37,7.85-1.68S47,33.89,47.48,32.13s5-13.58,5.79-18.86.11-8.34-1.55-9.76-4.37-1.43-5.27,1.14-3.47,17.5-3.09,21,1.55,16,2.19,16.7,2.7,5.77,4.5,5.34,4.63-.82,6.69-3.65,6.93-11.88,6.93-11.88,5-12.94,5-15.77.89-5.3,0-10S66.13,2,65.36,2s-5.27,6.61-5.79,19.6,2.06,20.71,2.83,22,1.12,4.12,3.71,4,6.18-2.12,6.89-3.41,1.19-8,7.41-9.73S73,37,75.39,42.32s4,5.56,5.92,5.36,3.78-.45,4.79-2a12.7,12.7,0,0,0,1.61-2.5,8.91,8.91,0,0,0,0-5.2c-1.11-5.14-2.55-5.51-3.59-4.63A4.08,4.08,0,0,0,83.37,39c1.8,2.44,1.8,5.27,6.56,4.24s6.27-2.77,7.63-5.63"/><path class="cls-2" d="M113.21,33.13s-3.67,5.77-3.22,9.2,1.35,4.79,2.62,5.11,5.81.17,6.66-3.27a80.46,80.46,0,0,0,1.57-10.93s-1.4,10.81.68,12.73,3.48,2.49,4.3,2.09,2.53-.66,3.23-2.74,1.59-3.89,1.39-6.34-.6-7.07-.6-7.07,2.68,8.5,5,9.32,3.77.86,5-.57,2.33-3.77,3.48-4.71a4.55,4.55,0,0,1,2.08-1.06s-5.68,2.74-5.19,6,.08,3.64,1.6,5.48,4.21,2.82,6.17,1.84a8.77,8.77,0,0,0,4.42-4.42,8.64,8.64,0,0,0,0-6.83c-1.11-2.45-1.8-3.55-3.07-2.78s-2.74,3.11-1.55,5,1.95,4.87,5.33,4.83,5.09-.37,6.12-1.68,3.18-3.39,3.27-5.32,0-5.48,0-5.48,0-2.45-.82-2.25-2.95,3.28-2.78,4.05,2.53,1.31,5.44,1.15,5.07-.82,4.37,2.66-2.37,8.54,2,10.38,7.94-3.8,7.94-3.8,7-11.78,8.91-16.11,3.19-12.64,3.19-12.64.82-6,0-8.34-1.92-4.09-3-3.64-3.11,1.15-4.22,4.83-3.11,20.79-2,25a39.8,39.8,0,0,1,1.17,7.81,20.62,20.62,0,0,0,2.71,5.69c1.72,2.24,3.11,2.24,4.13,1.88a12.68,12.68,0,0,0,6.87-6c.07-.14.14-.28.2-.42,1.77-3.77,3.08-7.33,8.68-7.84,0,0-6,1.39-7.12,5.35s-1.47,4.62-.37,6.67,3.81,1.72,3.81,1.72,3.51-1.48,6.25-8.14,5.52-18.81,5.52-18.81,1.52-9.57.29-11.7-2.29-3.43-4-1.8-2.69,6.75-2.94,8.22-.57,23.11,1.55,27.32,3.11,4.7,4.52,5.07,3.21-.41,5.42-2.94a34.22,34.22,0,0,0,4.14-6.71"/></g></g></svg>