<svg xmlns="http://www.w3.org/2000/svg" viewBox="0 0 221.72 48.78"><defs><style>.cls-1,.cls-2{fill:none;}.cls-1{stroke:#231f20;stroke-width:0.1px;}.cls-2{stroke:#be1e2d;stroke-width:2.5px;opacity:0.25;}</style></defs><g id="Layer_2" data-name="Layer 2"><g id="TEXT"><path class="cls-1" 
d="M96.39,36.78a1.14,1.14,0,0,0-.79-.34,1.3,1.3,0,0,0-.64.18.92.92,0,0,0-.42.37,12.85,12.85,0,0,1-1.08,1.86,5.17,5.17,0,0,1-1.27,1.32,5.11,5.11,0,0,1-1.57.77,6.94,6.94,0,0,1-2,.26h-.42a1.64,1.64,0,0,1-.38,0A9.6,9.6,0,0,0,88.11,39a13.85,13.85,0,0,0-.35-3.37,7.27,7.27,0,0,0-1-2.31A3.87,3.87,0,0,0,85.45,32a3.39,3.39,0,0,0-1.64-.42,2.8,2.8,0,0,0-2.33,1.16,4.75,4.75,0,0,0-.88,3,7.2,7.2,0,0,0,1.22,4.12,8.33,8.33,0,0,0,3.11,2.82,5.52,5.52,0,0,1-1.84,2.17,5.15,5.15,0,0,1-3,.85,4.61,4.61,0,0,1-1.86-.36,4.32,4.32,0,0,1-2.38-2.61,5.77,5.77,0,0,1-.32-2,6.67,6.67,0,0,1,.32-2.16,6.34,6.34,0,0,1,.82-1.67,5.8,5.8,0,0,1,1.07-1.17A6,6,0,0,1,78.8,35a5,5,0,0,0,.85-.53,1,1,0,0,0,.34-.82,1.08,1.08,0,0,0-.28-.77,1,1,0,0,0-.82-.29,3.48,3.48,0,0,0-1.44.5,7.28,7.28,0,0,0-1.93,1.51,12,12,0,0,0-1.71,2.22,1.08,1.08,0,0,0-.15.27c-.28.57-.67,1.34-1.18,2.29a22.11,22.11,0,0,1-1.75,2.81,13.3,13.3,0,0,1-2.18,2.4,3.81,3.81,0,0,1-2.48,1c-1.26,0-2.34-.78-3.24-2.33a21,21,0,0,1-2.15-6.41c1.2-2.18,2.32-4.43,3.37-6.73a69.88,69.88,0,0,0,2.73-6.92,56.7,56.7,0,0,0,1.83-6.89,34.41,34.41,0,0,0,.68-6.64A26,26,0,0,0,69,5.31a10.86,10.86,0,0,0-.9-2.92A4,4,0,0,0,66.64.76,3.76,3.76,0,0,0,64.72.27a3.25,3.25,0,0,0-2.4,1.09,9.8,9.8,0,0,0-1.88,2.95A26,26,0,0,0,59,8.65q-.59,2.47-1,5.24c-.26,1.84-.44,3.72-.56,5.65s-.18,3.79-.18,5.59c0,1.24,0,2.67.12,4.28s.22,3.26.43,5c.09.73.21,1.45.33,2.17,0,0-.44.81-.6,1-.53.78-.78,1.32-1.36,2.25s-.92,1.48-1.58,2.4a13.72,13.72,0,0,1-2.19,2.4,3.8,3.8,0,0,1-2.47,1c-1.27,0-2.35-.78-3.25-2.33a21.24,21.24,0,0,1-2.15-6.41c1.2-2.18,2.32-4.43,3.37-6.73a69.88,69.88,0,0,0,2.73-6.92,55,55,0,0,0,1.84-6.89,34.38,34.38,0,0,0,.67-6.64,26,26,0,0,0-.32-4.4A10.19,10.19,0,0,0,52,2.39,3.92,3.92,0,0,0,50.54.76,3.72,3.72,0,0,0,48.63.27a3.27,3.27,0,0,0-2.41,1.09,10,10,0,0,0-1.88,2.95,25.15,25.15,0,0,0-1.41,4.34,52,52,0,0,0-1,5.24q-.39,2.76-.57,5.65c-.11,1.93-.17,3.79-.17,5.59,0,1.24,0,2.67.11,4.28s.22,3.26.43,5c.09.73.17,1.24.3,2a8.58,8.58,0,0,0-.52.9c-.44,1-1,1.93-1.58,2.94a15.53,15.53,0,0,1-1.89,2.73,9.71,9.71,0,0,1-2.35,2,6,6,0,0,1-5.46.19,4.93,4.93,0,0,1-1.73-1.5,13.37,13.37,0,0,0,2.34-1.44,10.55,10.55,0,0,0,1.88-1.83A8.18,8.18,0,0,0,34,38.14a6.73,6.73,0,0,0,.45-2.47,4.43,4.43,0,0,0-.36-1.83,4.15,4.15,0,0,0-2.23-2.23,3.62,3.62,0,0,0-1.46-.31,4.62,4.62,0,0,0-2.3.58,5.72,5.72,0,0,0-1.8,1.61,7.38,7.38,0,0,0-1.15,2.41c-.08.27-.27,1.75-.33,2,0,.07-.5.05-.81.61s-.6,1.11-1,1.7A20.8,20.8,0,0,1,21.8,42a14.77,14.77,0,0,1-1.41,1.6,7.73,7.73,0,0,1-1.51,1.16,3.13,3.13,0,0,1-1.54.43,1.59,1.59,0,0,1-1.1-.37,2.17,2.17,0,0,1-.62-1,5.84,5.84,0,0,1-.29-1.35A12.85,12.85,0,0,1,15.25,41a21.37,21.37,0,0,1,.14-2.58,17.46,17.46,0,0,0,.15-2,6.37,6.37,0,0,0-.21-1.67,4.63,4.63,0,0,0-.61-1.35,2.91,2.91,0,0,0-1-.91,3,3,0,0,0-1.46-.34,3.8,3.8,0,0,0-1.79.5,6.47,6.47,0,0,0-1.88,1.62c-.62.77-1.22,1.59-1.8,2.47s-1.12,1.76-1.63,2.65-1,1.76-1.45,2.61-.85,1.63-1.19,2.36l0-1.51V37.25C3.59,35.17,4.68,33,5.7,30.84a62,62,0,0,0,2.7-6.77A54.54,54.54,0,0,0,10.25,17a40,40,0,0,0,.69-7.44A22.45,22.45,0,0,0,10.68,6a11.36,11.36,0,0,0-.83-3A5.49,5.49,0,0,0,8.34,1,3.56,3.56,0,0,0,6.06.27,3.12,3.12,0,0,0,3.44,1.74a12.62,12.62,0,0,0-1.72,4.2,42.65,42.65,0,0,0-1,6.55Q.37,16.33.23,21.07C.13,24.23.08,27.64.07,31.32s0,7.53,0,11.58v2a3.41,3.41,0,0,0,.53,1.92,1.73,1.73,0,0,0,1.53.78,2.27,2.27,0,0,0,1.23-.46,4.73,4.73,0,0,0,1.37-1.82c.23-.47.53-1.06.9-1.78s.77-1.47,1.22-2.27.91-1.59,1.4-2.39a25.53,25.53,0,0,1,1.44-2.17,11.17,11.17,0,0,1,1.38-1.56,1.9,1.9,0,0,1,1.18-.59.79.79,0,0,1,.62.35,2.29,2.29,0,0,1,.28,1.35c0,.26,0,.57-.05.95S13,38,13,38.43s-.08.87-.12,1.3,0,.86,0,1.24A15.56,15.56,0,0,0,13,43.29a6.69,6.69,0,0,0,.68,2.15A4.34,4.34,0,0,0,15.05,47a4.08,4.08,0,0,0,2.38.62A5.11,5.11,0,0,0,19.89,47a9.82,9.82,0,0,0,2.18-1.61,15.7,15.7,0,0,0,1.85-2.13c.42-.59.79-1.15,1.13-1.69.05.19.1.39.16.59a8.83,8.83,0,0,0,1.47,2.94,7.5,7.5,0,0,0,6.21,2.94,8.63,8.63,0,0,0,5.92-2.54,21,21,0,0,0,4-5.63,19.33,19.33,0,0,0,1.42,3.87,9.82,9.82,0,0,0,2.34,3.11,4.88,4.88,0,0,0,3.31,1.19,5.3,5.3,0,0,0,2.36-.53,9,9,0,0,0,2.09-1.38,14,14,0,0,0,1.82-1.93,24.93,24.93,0,0,0,1.51-2.17c.45-.72.85-1.43,1.2-2.1l0-.07a20.74,20.74,0,0,0,1.42,3.88,10,10,0,0,0,2.35,3.11A4.86,4.86,0,0,0,66,48.07a5.33,5.33,0,0,0,2.36-.53,9.22,9.22,0,0,0,2.09-1.38,13.32,13.32,0,0,0,1.81-1.93c.39-.49.74-1,1.07-1.49a9.5,9.5,0,0,0,.28.95A6.54,6.54,0,0,0,75,46a6.84,6.84,0,0,0,2.18,1.48A7.12,7.12,0,0,0,80,48a7.5,7.5,0,0,0,2.37-.36,7.28,7.28,0,0,0,2-1,7.58,7.58,0,0,0,1.56-1.43,9.5,9.5,0,0,0,1.15-1.78,7.45,7.45,0,0,0,1.42.12,8.18,8.18,0,0,0,2.73-.35,8.58,8.58,0,0,0,2.2-1,7.87,7.87,0,0,0,1.7-1.55,12.57,12.57,0,0,0,1.27-1.84c.09-.17.17-.36.26-.57a1.56,1.56,0,0,0,.13-.56A1.15,1.15,0,0,0,96.39,36.78ZM2.49,28.89c0-1.39,0-2.88,0-4.48s.06-3.24.12-4.93.13-3.34.24-5,.24-3.13.41-4.56a34.93,34.93,0,0,1,.65-3.78,10.1,10.1,0,0,1,.9-2.57c.34-.63.75-1,1.22-1a1.55,1.55,0,0,1,1.4.87,7,7,0,0,1,.73,2,12.94,12.94,0,0,1,.29,2.28c0,.75,0,1.29,0,1.64a38.8,38.8,0,0,1-.45,6,49.78,49.78,0,0,1-1.23,5.67Q6.06,23.94,5,26.76T2.49,32.52ZM27.28,40.27A6.69,6.69,0,0,1,27.17,39a11,11,0,0,1,.17-1.88,6.37,6.37,0,0,1,.57-1.71,3.48,3.48,0,0,1,1-1.26,2.33,2.33,0,0,1,1.48-.48,1.51,1.51,0,0,1,1.12.5A2,2,0,0,1,32,35.67a4.73,4.73,0,0,1-.33,1.72,6.17,6.17,0,0,1-.9,1.62,7.45,7.45,0,0,1-1.39,1.42,8.19,8.19,0,0,1-1.82,1.06A11.44,11.44,0,0,1,27.28,40.27ZM44,32.88c-.11-1.16-.19-2.37-.26-3.63s-.09-2.59-.09-4q0-2.7.18-5.43c.11-1.82.27-3.56.48-5.23s.45-3.24.75-4.69a31.2,31.2,0,0,1,1-3.8,10.58,10.58,0,0,1,1.17-2.53c.42-.62.85-.94,1.3-.94.69,0,1.23.55,1.64,1.64a17.08,17.08,0,0,1,.61,5.43,30.91,30.91,0,0,1-.56,5.67,53.36,53.36,0,0,1-1.5,6c-.62,2-1.33,4-2.15,5.94S44.9,31.14,44,32.88Zm16.1,0c-.11-1.16-.19-2.37-.26-3.63s-.1-2.59-.1-4q0-2.7.18-5.43c.12-1.82.28-3.56.48-5.23s.46-3.24.76-4.69a33.28,33.28,0,0,1,1-3.8,11,11,0,0,1,1.18-2.53c.41-.62.85-.94,1.3-.94.68,0,1.23.55,1.64,1.64a17.38,17.38,0,0,1,.61,5.43,30.91,30.91,0,0,1-.56,5.67,55.63,55.63,0,0,1-1.5,6q-.93,3-2.15,5.94C61.85,29.29,61,31.14,60.1,32.88Zm25.54,7.48a4.74,4.74,0,0,1-1.17-1,7.2,7.2,0,0,1-.84-1.25,6.42,6.42,0,0,1-.5-1.34A6,6,0,0,1,83,35.48a1.79,1.79,0,0,1,.32-1.26.92.92,0,0,1,.52-.28,1,1,0,0,1,.83.46,4,4,0,0,1,.6,1.22,11,11,0,0,1,.37,1.66A13.39,13.39,0,0,1,85.74,39,10,10,0,0,1,85.64,40.36Z"/>

<path class="cls-1" 

d="M221.28,37.47a1.19,1.19,0,0,0-2,.39c-.3.68-.69,1.49-1.16,2.41a19,19,0,0,1-1.62,2.62,11.64,11.64,0,0,1-2,2.09,3.56,3.56,0,0,1-2.22.85c-2,0-3.51-2.48-4.56-7.42.57-1.4,1.22-3.06,1.92-5s1.38-4,2-6.3,1.16-4.65,1.59-7.13a43.7,43.7,0,0,0,.64-7.46,20.9,20.9,0,0,0-.22-3.18A9.56,9.56,0,0,0,213,6.89a4.12,4.12,0,0,0-1.21-1.61A2.85,2.85,0,0,0,210,4.7a3.17,3.17,0,0,0-2.12.82,7.1,7.1,0,0,0-1.62,2.23A17.63,17.63,0,0,0,205.09,11a34.8,34.8,0,0,0-.77,3.94c-.19,1.38-.33,2.79-.42,4.24s-.13,2.83-.13,4.16a68.89,68.89,0,0,0,.45,8.26q.45,3.69,1,6.52A42.6,42.6,0,0,1,203.47,42,15,15,0,0,1,202,44.32a3.84,3.84,0,0,1-1.24,1.07,2.45,2.45,0,0,1-1.09.28,2.23,2.23,0,0,1-1.91-.9,4.18,4.18,0,0,1-.66-2.51,8.57,8.57,0,0,1,.6-3.37,7.11,7.11,0,0,1,1.51-2.33,6.66,6.66,0,0,1,2-1.4,7.91,7.91,0,0,1,2.06-.61,1.12,1.12,0,0,0,.77-.42,1.23,1.23,0,0,0,.29-.8,1.14,1.14,0,0,0-.35-.85,1.17,1.17,0,0,0-.84-.34,6.72,6.72,0,0,0-3,.74A9.19,9.19,0,0,0,197.47,35a16.86,16.86,0,0,0-1.64,2,5.33,5.33,0,0,0-.54.81c-.28.58-.67,1.35-1.17,2.3a25.53,25.53,0,0,1-1.75,2.81,13.65,13.65,0,0,1-2.19,2.39,3.77,3.77,0,0,1-2.47,1c-1.27,0-2.35-.78-3.25-2.33a21.33,21.33,0,0,1-2.15-6.41q1.8-3.28,3.37-6.73a70,70,0,0,0,2.73-6.93A54.55,54.55,0,0,0,190.25,17a34.2,34.2,0,0,0,.67-6.63A25.94,25.94,0,0,0,190.6,6,10.26,10.26,0,0,0,189.7,3a3.83,3.83,0,0,0-1.43-1.62,3.73,3.73,0,0,0-1.91-.5A3.31,3.31,0,0,0,184,2a10.06,10.06,0,0,0-1.88,3,24.87,24.87,0,0,0-1.41,4.34,51.74,51.74,0,0,0-1,5.23c-.26,1.85-.45,3.73-.57,5.66s-.17,3.79-.17,5.59c0,1.24,0,2.67.11,4.27s.22,3.26.43,5c.1.74.16,1.13.28,1.86,0,0,0,0,0,0a4.75,4.75,0,0,0-.53.85c-.37.71-.82,1.53-1.37,2.47A20.69,20.69,0,0,1,176,42.89a12.11,12.11,0,0,1-2.25,2.17,4.3,4.3,0,0,1-2.6.9,3.15,3.15,0,0,1-1-.18,2.74,2.74,0,0,1-1-.63,3.61,3.61,0,0,1-.81-1.2A5,5,0,0,1,168,42a15.19,15.19,0,0,1,.1-1.64c.06-.56.14-1.12.22-1.69s.16-1.12.23-1.65a14,14,0,0,0,.1-1.55,3.24,3.24,0,0,0-1-2.63,4.22,4.22,0,0,0-2.79-.8h-1l-1.07,0a12.9,12.9,0,0,0-.11-1.51,9.78,9.78,0,0,0-.37-1.66,4,4,0,0,0-.73-1.33,1.52,1.52,0,0,0-1.2-.55,1.84,1.84,0,0,0-1.29.66A7.51,7.51,0,0,0,158,29.28a9.27,9.27,0,0,0-.82,1.83,4.93,4.93,0,0,0-.31,1.48A1.71,1.71,0,0,0,158,34.36a3.4,3.4,0,0,0,1.08.22l1.12,0c-.19,1-.35,1.64-.48,2.09a6.77,6.77,0,0,1-.27.83l-.08.1a13,13,0,0,1-1.08,1.87A5.71,5.71,0,0,1,157,40.82a5.34,5.34,0,0,1-1.57.77,7,7,0,0,1-2,.25H153a2.34,2.34,0,0,1-.38,0,9.73,9.73,0,0,0,.25-2.15,14.3,14.3,0,0,0-.35-3.37,7.47,7.47,0,0,0-.95-2.32,3.87,3.87,0,0,0-1.36-1.32,3.5,3.5,0,0,0-1.64-.41,2.78,2.78,0,0,0-2.33,1.15,4.79,4.79,0,0,0-.89,3,7.2,7.2,0,0,0,1.23,4.11,8.35,8.35,0,0,0,3.11,2.83,5.62,5.62,0,0,1-1.85,2.17,5.09,5.09,0,0,1-3,.85A4.52,4.52,0,0,1,143,46a4.36,4.36,0,0,1-2.37-2.6,5.79,5.79,0,0,1-.32-2,6.61,6.61,0,0,1,.32-2.15,6,6,0,0,1,.82-1.67,5.8,5.8,0,0,1,1.07-1.17,6.73,6.73,0,0,1,1.1-.73,4.45,4.45,0,0,0,.85-.53,1,1,0,0,0,.33-.81,1.1,1.1,0,0,0-.27-.78,1.08,1.08,0,0,0-.82-.29,3.63,3.63,0,0,0-1.44.5,7.33,7.33,0,0,0-1.93,1.51,9.65,9.65,0,0,0-1.44,2c-.16.22-.88,1.31-1.07,1.52a2.79,2.79,0,0,1-.72.57,2.13,2.13,0,0,1-1,.24,3.65,3.65,0,0,1-2-.53,6.19,6.19,0,0,1-1.51-1.34A8.84,8.84,0,0,1,131.47,36a14.59,14.59,0,0,1-.76-1.8c-.19-.56-.34-1.05-.45-1.46s-.17-.65-.19-.74a1.25,1.25,0,0,0-.42-.72,1.22,1.22,0,0,0-1.64.1,1.2,1.2,0,0,0-.35.85,13.49,13.49,0,0,0,.22,1.8,20.93,20.93,0,0,1,.23,3.37,23.8,23.8,0,0,1-.21,3.23,10.8,10.8,0,0,1-.69,2.68,4.65,4.65,0,0,1-1.29,1.83,2.92,2.92,0,0,1-2,.68,3.43,3.43,0,0,1-1.57-.37,3.07,3.07,0,0,1-1.19-1.16,5.64,5.64,0,0,1-.69-2,12.79,12.79,0,0,1-.11-2.92l.35-5.3a1.47,1.47,0,0,0-.32-.92,1,1,0,0,0-.87-.4,1.28,1.28,0,0,0-.85.32,1.15,1.15,0,0,0-.4.81l-.42,5.52a8.8,8.8,0,0,1-.64,2.8,7,7,0,0,1-1.22,2,4.93,4.93,0,0,1-1.51,1.14,3.7,3.7,0,0,1-1.48.37,2.58,2.58,0,0,1-2.15-1,4.58,4.58,0,0,1-.77-2.88,14.81,14.81,0,0,1,.3-3.18,15.76,15.76,0,0,1,.69-2.28,8.69,8.69,0,0,1,.76-1.48l.5-.74a1.48,1.48,0,0,0,.25-.77,1.25,1.25,0,0,0-.33-.85,1.11,1.11,0,0,0-.86-.37,1.19,1.19,0,0,0-.49.1.9.9,0,0,0-.4.29,11.48,11.48,0,0,0-1.43,2.24,15.27,15.27,0,0,0-1,2.88,17.44,17.44,0,0,0-.43,4.16,8.41,8.41,0,0,0,.38,2.6,6.08,6.08,0,0,0,1.08,2,4.73,4.73,0,0,0,1.67,1.27,5.21,5.21,0,0,0,2.2.45,5.51,5.51,0,0,0,3-1,9,9,0,0,0,2.65-2.88,10.1,10.1,0,0,0,.7,1.53,5.17,5.17,0,0,0,1,1.28,4.7,4.7,0,0,0,1.48.9,5.18,5.18,0,0,0,2,.34,5.12,5.12,0,0,0,3-.85,6.45,6.45,0,0,0,2-2.2,10.86,10.86,0,0,0,1.11-3,24.18,24.18,0,0,0,.45-3.36A10.18,10.18,0,0,0,131.55,40a7.43,7.43,0,0,0,1.27,1,6.87,6.87,0,0,0,1.49.73,5.42,5.42,0,0,0,1.74.27,4.38,4.38,0,0,0,1.84-.4,8.11,8.11,0,0,0,.5,2.66A6.59,6.59,0,0,0,142,48.09a6.93,6.93,0,0,0,2.76.53,7.5,7.5,0,0,0,5.92-2.74,9.58,9.58,0,0,0,1.15-1.79,6.67,6.67,0,0,0,1.42.13,8.2,8.2,0,0,0,4.93-1.4,7.83,7.83,0,0,0,1.7-1.54,12.65,12.65,0,0,0,1.27-1.85c.09-.17.17-.36.26-.56,0,0,0,0,0-.06s0,0,0,0a2.8,2.8,0,0,0,.16-.38c.09-.24.19-.55.3-.92s.25-.81.37-1.32a16.51,16.51,0,0,0,.33-1.62l1.14,0h1a1.67,1.67,0,0,1,1.2.3,1.37,1.37,0,0,1,.27.92,14.88,14.88,0,0,1-.32,3,16.54,16.54,0,0,0-.32,3.2,7.76,7.76,0,0,0,.45,2.72,6,6,0,0,0,1.21,2A5,5,0,0,0,169,48a5.51,5.51,0,0,0,2.18.44,6.19,6.19,0,0,0,3.43-1A13.21,13.21,0,0,0,177.43,45a21.37,21.37,0,0,0,2.23-3.1c.3-.51.58-1,.84-1.44a20.71,20.71,0,0,0,1.46,4,9.75,9.75,0,0,0,2.34,3.12,4.93,4.93,0,0,0,3.31,1.19,5.43,5.43,0,0,0,2.36-.53,9.34,9.34,0,0,0,2.09-1.38,14,14,0,0,0,1.82-1.93c.33-.43.63-.85.92-1.28a6.41,6.41,0,0,0,.33,1.34,5.31,5.31,0,0,0,1.09,1.82,3.86,3.86,0,0,0,1.58,1,5.85,5.85,0,0,0,1.86.31,4.94,4.94,0,0,0,3.41-1.48,16.06,16.06,0,0,0,3.11-4.76,12,12,0,0,0,2.67,4.93,5.11,5.11,0,0,0,3.69,1.5,4.61,4.61,0,0,0,2.2-.56,9.55,9.55,0,0,0,2-1.43,12.4,12.4,0,0,0,1.7-2c.52-.73,1-1.44,1.4-2.14s.77-1.35,1.06-2,.51-1.1.66-1.46a1.06,1.06,0,0,0,.1-.45A1.22,1.22,0,0,0,221.28,37.47ZM150.44,41a5,5,0,0,1-1.17-1,6.74,6.74,0,0,1-.84-1.26,6.34,6.34,0,0,1-.5-1.33,6,6,0,0,1-.16-1.29,1.74,1.74,0,0,1,.32-1.25,1,1,0,0,1,.52-.29,1,1,0,0,1,.83.47,4,4,0,0,1,.6,1.22,10.57,10.57,0,0,1,.37,1.65,13.42,13.42,0,0,1,.13,1.77A10,10,0,0,1,150.44,41Zm8.61-8.84c0-.17.11-.38.19-.64a6,6,0,0,1,.29-.72,5.93,5.93,0,0,1,.31-.58q.14-.24.24-.24c.06,0,.12.08.17.25a3.21,3.21,0,0,1,.13.62c0,.23.06.47.07.72s0,.44,0,.59Zm22.68,1.35c-.11-1.15-.19-2.36-.26-3.63s-.09-2.58-.09-3.95q0-2.7.18-5.43c.11-1.82.27-3.57.48-5.24s.45-3.23.75-4.69a31,31,0,0,1,1-3.79A10.67,10.67,0,0,1,185,4.25c.42-.62.85-.93,1.3-.93.69,0,1.23.55,1.64,1.64a17,17,0,0,1,.61,5.43,30.91,30.91,0,0,1-.56,5.67,53.91,53.91,0,0,1-1.5,6c-.62,2-1.33,4-2.15,5.94S182.63,31.79,181.73,33.52ZM206.41,29c-.15-1.89-.23-3.77-.23-5.65a54.41,54.41,0,0,1,.31-5.87,43.48,43.48,0,0,1,.82-5.2,17,17,0,0,1,1.2-3.71c.46-.95,1-1.42,1.49-1.42a.87.87,0,0,1,.78.55A5.53,5.53,0,0,1,211.24,9a11.75,11.75,0,0,1,.23,1.75c0,.63,0,1.2,0,1.74a43.06,43.06,0,0,1-.36,5.54q-.37,2.77-1,5.51c-.42,1.82-.91,3.61-1.46,5.35s-1.15,3.44-1.77,5.09C206.73,32.53,206.56,30.84,206.41,29Z"/>

</g><g id="PATHS">

<path class="cls-2" 

d="M1.43,36.36S7,27.8,8.53,19.64C9.81,13,10,10.33,9.65,6.52,9.39,3.86,7.8,1.29,6.17,1.25,3,1.17,1.45,11.37,1.6,20.58c.13,8.93-.59,24.77,0,25.79,1.19,2.09,6.46-11.46,9.55-12.66,2.87-1.11,3.52.85,3.14,4.58s-.45,6,1.42,7.63c3,2.61,7.53-3.07,9.22-6.55.63-1.29,1.54,4.18,2,3.88,2.08-1.18,4.11-2.52,5.22-4.43A5.81,5.81,0,0,0,33,34.39c-.13-1.23-3.9-3.72-6,.14a11.3,11.3,0,0,0-.66,7.7h0s1.51,3.29,3.82,4.18a8.48,8.48,0,0,0,7.85-1.69c2.1-1.9,7.3-11.85,8.11-13.48,2.81-5.69,5.44-13.7,5.76-19,.39-6.29-.73-10.11-2.8-10.82-2.36-.81-4.25,4.05-5,6.9-.93,3.45-1.67,12.91-1.75,16.57-.06,3.5.89,14,2.36,16.87,1.55,3,1.83,5.16,5.83,5.16,1.15,0,2.94-.89,5-3.72a104,104,0,0,0,7.07-12.54c1.11-2.55,4.25-10.57,4.9-15.11.55-3.87,1.06-5.56.17-10.29s-4.65-5.8-6.73,1c-.23.74-2.44,5.26-2.58,14.56-.2,13.69,2.07,20.71,2.83,22,1.38,2.31,2.37,4.17,5,4.1s4.46-2.47,5.38-3.62c3.55-4.41,3.35-8.59,7.67-9.57.42-.09-4.31,1.36-5,5.53C73.38,45,78,46.9,80.13,46.85a6.07,6.07,0,0,0,4.79-2c1.75-2.07,2.21-5.21,1.72-8.3C86,32.63,83.88,32.44,83,33.11c-1.88,1.39-1.48,5,.71,7.1,1.38,1.33,2.5,2.33,5.07,2.2,4.65-.23,6-3,7.28-5.87"/>

<path class="cls-2" 

d="M111.29,33.52c.72-1.1-3.15,4.13-2.39,9.06.52,3.42,1.95,3.59,3.15,4.13,2.31,1,5.59-1.47,6.64-4.85s.77-9.11.89-7.55c0,0-1.43,7.57.87,11s6.5,1.62,7.47-.56c1.21-2.69,1.09-4.13,1.34-6.58a25.66,25.66,0,0,0-.37-5.76.1.1,0,0,1,.2-.06c.84,2.4.61,4.24,2.78,6.45,2.76,2.82,5.87,2.42,6.79.77a13,13,0,0,1,3.39-4.18c1.14-.94,1.8-.95,1.62-.86s-5.16,2-4.59,7.25c.35,3.24.57,3.05,2.38,4.61a6,6,0,0,0,7,.11c1.85-1.49,3-2.44,3.08-4.55.15-2.72.63-4-.47-6.48s-2.78-2.57-3.87-1.55c-1.35,1.28-.49,4.43.69,6.27,1.63,2.54,4.32,3.21,7.65,2.61,2.21-.4,4.11-2.81,4.94-4.47,1.51-3,1.36-9.93,0-9.94s-2.78,3.55-2.62,4.33,2.91.95,5.8.64c2.13-.23,4-.13,3.85,2.88-.13,3.55-2.28,8.31,1.86,10.57,5.34,2.92,10.78-8.06,10.78-8.06s4.5-7.56,6.17-12a99.47,99.47,0,0,0,3.19-12.64s.42-6.13-.22-8.42c-.88-3.11-2.15-3.88-3.41-3.51s-2.15,1.49-3.51,5.21S179.52,26,180.43,32.8c.75,5.74.95,6.9.95,6.9a20.33,20.33,0,0,0,2.72,5.68,4.71,4.71,0,0,0,5.17,1.8c1-.37,4.12-2.87,6-6.81,2.17-4.62,5-6.55,7.47-7a8.75,8.75,0,0,0-5.82,4.82c-2.73,6.38.58,8.69,2.68,8.74,2.32.07,4.15-1.91,6.89-8.57,2.64-6.41,4.92-13.53,5.62-18.55.1-.77,1.42-8.32,0-11.69-.91-2.2-2-3.09-3.7-1.46s-2.77,8.05-3,9.52c-.67,3.47-.69,16.17,1.85,24.89.64,2.21,2,5.33,4.32,5.91s3.6-.64,5.81-3.17a17.25,17.25,0,0,0,3.05-5.25"/>
</g></g></svg>